<?xml version="1.0" standalone="no"?>
<!DOCTYPE svg PUBLIC "-//W3C//DTD SVG 20010904//EN"
 "http://www.w3.org/TR/2001/REC-SVG-20010904/DTD/svg10.dtd">
<svg version="1.0" xmlns="http://www.w3.org/2000/svg"
 width="700.000000pt" height="700.000000pt" viewBox="0 0 700.000000 700.000000"
 preserveAspectRatio="xMidYMid meet">
<metadata>
Created by potrace 1.14, written by Peter Selinger 2001-2017
</metadata>
<g transform="translate(0.000000,700.000000) scale(0.100000,-0.100000)"
fill="#000000" stroke="none">
<path d="M3255 6964 c-271 -27 -413 -50 -604 -99 -491 -124 -918 -337 -1331
-664 -123 -98 -425 -399 -521 -521 -419 -531 -657 -1092 -746 -1760 -22 -169
-25 -638 -5 -800 56 -445 165 -807 357 -1191 167 -333 364 -600 654 -889 388
-386 809 -649 1321 -825 338 -116 652 -172 1025 -182 335 -9 614 20 923 97
509 126 937 339 1357 673 128 102 408 382 511 512 428 537 668 1109 756 1805
17 140 17 620 0 760 -35 280 -88 511 -172 754 -133 385 -313 710 -579 1046
-96 122 -398 424 -521 522 -519 412 -1081 651 -1750 743 -110 15 -580 28 -675
19z m654 -99 c900 -115 1686 -556 2250 -1264 674 -846 899 -1987 599 -3035
-321 -1120 -1204 -2003 -2324 -2324 -914 -262 -1910 -125 -2711 372 -549 340
-977 812 -1263 1391 -174 354 -272 681 -327 1091 -12 95 -17 201 -17 404 0
203 5 309 17 404 55 410 153 737 327 1091 174 353 368 624 645 900 276 277
547 470 900 645 290 143 579 239 885 294 117 21 182 29 395 50 88 9 507 -4
624 -19z"/>
<path d="M3175 6820 c-666 -74 -1258 -317 -1770 -726 -141 -113 -386 -358
-499 -499 -379 -474 -611 -1007 -708 -1625 -20 -129 -22 -182 -22 -470 0 -288
2 -341 22 -470 64 -409 190 -790 374 -1125 79 -145 225 -364 334 -500 113
-141 358 -386 499 -499 515 -412 1124 -660 1784 -726 133 -13 489 -13 622 0
663 67 1266 312 1784 726 141 113 386 358 499 499 380 477 611 1008 708 1625
20 129 22 182 22 470 0 288 -2 341 -22 470 -97 617 -329 1151 -708 1625 -113
141 -358 386 -499 499 -477 381 -1007 612 -1620 707 -114 17 -195 22 -430 24
-159 2 -326 0 -370 -5z m2150 -689 c240 -172 506 -420 666 -621 267 -335 472
-727 583 -1112 40 -143 40 -138 11 -138 -19 0 -123 95 -469 430 -245 237 -449
430 -453 430 -5 0 -35 -27 -68 -60 -32 -32 -62 -57 -67 -54 -6 4 -145 183
-273 352 -8 10 -27 -2 -90 -59 l-79 -72 -46 99 c-25 54 -72 158 -105 231 -33
73 -64 131 -69 130 -5 -2 -88 -140 -183 -307 -95 -167 -175 -306 -178 -308 -2
-3 -32 12 -65 32 -34 20 -68 36 -75 36 -8 0 -89 -98 -179 -219 -91 -120 -172
-224 -180 -230 -8 -7 -55 -16 -105 -21 -50 -5 -96 -12 -103 -16 -7 -4 -59 -50
-115 -102 l-103 -94 -122 117 c-68 65 -225 216 -349 336 l-225 218 -66 -66
-65 -65 -143 186 c-78 102 -144 186 -146 186 -2 0 -36 -29 -75 -65 -39 -36
-74 -65 -78 -65 -5 0 -55 101 -112 225 -57 123 -107 225 -111 225 -3 0 -84
-136 -179 -302 -94 -167 -176 -307 -180 -312 -4 -5 -34 7 -69 28 -34 20 -68
36 -75 36 -8 0 -87 -96 -175 -214 -88 -117 -169 -221 -179 -230 -13 -12 -49
-20 -113 -26 -51 -5 -94 -10 -96 -10 -1 0 -67 -60 -147 -134 l-144 -133 -93
-23 c-51 -13 -104 -29 -118 -38 -14 -8 -52 -49 -85 -92 -33 -43 -61 -75 -63
-70 -6 15 58 249 104 381 88 255 203 484 359 719 124 187 232 318 405 490 158
159 270 254 440 373 l95 67 1730 -2 1730 -3 90 -64z m-3128 -912 c3 -16 -3
-42 -17 -68 -12 -24 -19 -45 -16 -48 2 -3 29 14 59 36 30 23 65 41 79 41 15 0
44 15 68 35 41 34 56 43 47 28 -3 -5 -36 -89 -75 -188 -38 -99 -79 -204 -91
-232 -11 -29 -17 -53 -13 -53 4 1 57 68 117 150 61 82 112 149 115 150 3 0 23
-30 44 -66 l39 -65 -21 -72 c-48 -171 -37 -180 50 -36 43 71 57 104 58 133 l0
40 31 -30 c32 -31 33 -34 13 -133 l-7 -33 40 26 c40 27 83 89 83 122 0 14 7
11 35 -16 19 -19 35 -42 35 -52 0 -10 -21 -58 -46 -106 l-46 -87 91 95 c86 90
107 129 81 145 -5 3 -10 14 -10 23 0 10 53 -36 130 -113 72 -71 130 -132 130
-135 0 -3 -61 -47 -136 -99 -74 -51 -133 -95 -131 -98 3 -2 76 28 162 67 86
39 165 70 175 68 21 -3 258 -217 259 -234 1 -5 14 -23 31 -39 16 -16 28 -30
27 -31 -2 -2 -31 5 -65 15 -34 11 -62 18 -62 16 0 -7 281 -257 285 -253 2 2
-10 25 -27 51 -17 26 -29 49 -27 51 2 2 36 -9 74 -24 85 -35 99 -36 111 -10 9
20 14 17 92 -39 45 -34 82 -58 82 -56 0 14 -145 185 -157 185 -7 0 -33 -5 -58
-12 -45 -12 -45 -12 -84 26 l-40 39 99 85 c55 47 98 87 96 89 -2 2 -30 -8 -61
-22 -32 -14 -60 -23 -62 -21 -5 5 95 90 122 104 24 12 182 45 195 40 6 -2 -53
-74 -131 -161 -77 -87 -139 -160 -137 -162 6 -7 567 459 573 476 3 9 -2 35
-10 59 -28 80 -24 84 52 44 80 -42 70 -49 144 99 27 53 51 97 54 97 2 0 -2
-21 -10 -47 -8 -27 -33 -113 -56 -193 -22 -80 -47 -155 -54 -166 -8 -12 -71
-61 -140 -110 -69 -49 -122 -90 -117 -92 14 -4 361 136 394 159 14 11 70 82
124 159 53 77 99 138 101 137 2 -2 -10 -48 -27 -102 -17 -54 -29 -100 -27
-101 2 -2 52 91 111 206 59 116 105 210 101 210 -3 0 -60 -43 -126 -96 -66
-53 -121 -95 -124 -93 -2 3 9 33 25 69 39 86 38 90 -11 90 -22 0 -39 3 -37 8
3 7 148 223 155 232 6 7 17 -14 38 -75 l19 -56 -23 -46 c-12 -25 -20 -48 -17
-50 2 -3 29 14 59 36 31 24 65 41 80 41 17 0 42 14 67 36 22 20 40 31 40 25 0
-6 -36 -104 -81 -218 -45 -115 -85 -218 -90 -230 -5 -13 -6 -23 -4 -23 3 0 55
66 115 148 61 81 114 148 118 149 4 2 24 -27 45 -62 l38 -65 -27 -100 c-40
-148 -24 -149 62 -4 48 82 55 102 52 136 l-4 40 34 -37 c29 -31 33 -42 27 -68
-3 -18 -9 -47 -12 -66 l-6 -35 29 21 c46 33 75 68 88 108 l13 36 31 -36 c18
-20 32 -42 32 -49 0 -8 -21 -54 -46 -102 l-46 -89 86 90 c86 90 107 125 89
148 -6 6 -13 21 -17 32 -4 11 54 -41 129 -115 74 -74 135 -137 135 -140 0 -3
-61 -47 -136 -99 -74 -51 -133 -95 -131 -97 2 -3 75 27 161 66 86 39 165 70
175 68 18 -3 355 -308 348 -314 -2 -2 -38 7 -80 20 -42 13 -77 22 -77 21 0 -7
281 -257 285 -253 2 2 -10 25 -27 51 -17 26 -29 49 -27 51 8 7 158 -57 163
-69 2 -7 14 -68 25 -136 71 -432 53 -864 -56 -1303 l-37 -149 -225 7 c-254 8
-251 8 -251 82 0 35 4 43 22 47 12 4 28 1 35 -5 8 -6 16 -8 20 -4 3 3 15 -1
25 -11 11 -9 18 -11 18 -5 0 7 8 12 18 12 9 0 23 4 31 9 12 8 12 12 2 25 -8 9
-21 16 -31 16 -10 0 -23 6 -29 14 -13 15 4 26 39 26 10 0 20 7 24 15 3 9 0 15
-8 15 -15 0 -39 26 -42 45 -1 7 9 16 22 19 22 6 23 8 10 21 -8 8 -21 15 -30
15 -24 0 -30 21 -7 27 17 4 19 8 10 19 -6 7 -8 18 -4 24 3 5 1 10 -5 10 -15 0
-41 26 -33 34 4 3 20 6 37 6 l31 1 -24 19 c-13 11 -29 20 -37 20 -26 0 -14 17
16 23 l30 6 -26 26 c-14 14 -31 25 -39 25 -17 0 -20 16 -5 25 6 4 4 12 -5 21
-19 20 -19 34 0 34 21 0 19 19 -2 27 -38 13 -46 26 -23 38 20 11 21 13 5 28
-12 12 -13 17 -3 17 7 0 2 9 -12 20 l-25 19 24 9 23 8 -27 18 c-20 13 -24 20
-15 26 8 5 9 13 4 21 -5 8 -10 23 -11 34 -1 11 -5 35 -9 54 l-7 34 -13 -33
c-8 -18 -12 -35 -10 -38 3 -2 -1 -19 -9 -37 -7 -19 -11 -36 -8 -38 10 -10 -9
-47 -24 -47 -12 0 -13 -3 -4 -14 9 -10 8 -16 -5 -26 -14 -12 -14 -14 0 -22 20
-11 10 -34 -17 -42 -22 -6 -22 -6 3 -21 25 -14 25 -14 3 -15 -27 0 -30 -15 -7
-24 14 -5 13 -10 -10 -31 -29 -27 -34 -45 -11 -45 24 0 17 -15 -12 -30 -16 -8
-30 -16 -32 -17 -2 -1 2 -9 8 -17 11 -13 7 -13 -23 -4 -39 12 -38 23 2 40 22
9 24 12 10 15 -19 5 -25 23 -8 23 18 0 10 22 -10 27 -11 3 -20 9 -20 14 0 5
-7 9 -15 9 -23 0 -18 20 7 29 l22 8 -22 19 c-12 10 -22 24 -22 31 0 7 -5 13
-12 13 -6 0 -4 8 6 19 17 19 17 20 -11 24 -27 4 -27 5 -5 12 27 9 28 16 2 38
-22 19 -25 33 -9 42 7 5 5 13 -6 25 -11 12 -13 20 -6 25 17 10 13 22 -8 28
-18 4 -25 30 -34 129 -1 14 -5 30 -9 34 -5 4 -8 21 -9 38 0 27 -3 24 -19 -24
-11 -30 -18 -60 -16 -66 3 -7 -2 -21 -10 -32 -11 -16 -11 -21 -1 -25 8 -3 1
-14 -18 -31 -27 -23 -28 -25 -9 -26 34 0 36 -12 7 -37 -16 -12 -22 -22 -15
-23 18 0 -11 -30 -30 -30 -7 0 2 -8 20 -17 25 -12 30 -18 21 -29 -6 -8 -16
-14 -21 -14 -10 0 -38 -25 -38 -34 0 -3 9 -6 19 -6 14 0 19 -6 18 -21 -1 -15
-6 -19 -22 -15 -11 3 -26 6 -32 6 -7 0 -13 7 -13 15 0 8 -4 15 -10 15 -5 0
-10 6 -10 13 0 9 -12 14 -30 14 -17 0 -36 5 -42 11 -9 9 -7 12 8 12 10 0 25 9
32 20 11 18 10 20 -8 20 -11 0 -20 4 -20 9 0 5 -3 16 -6 24 -3 10 4 17 23 22
15 4 22 10 16 12 -7 3 -13 11 -13 19 0 8 -10 14 -24 14 -21 0 -54 25 -45 34 2
2 20 10 39 18 l35 14 -33 15 c-38 16 -40 24 -9 34 21 7 21 7 2 12 -26 7 -56
33 -49 44 3 5 17 9 31 9 26 0 26 1 -13 35 -37 33 -38 36 -17 41 l22 6 -24 22
c-16 15 -21 26 -15 37 8 14 5 29 -28 129 -5 15 -19 -37 -26 -95 -5 -40 -13
-72 -22 -87 -5 -7 -7 -27 -5 -45 2 -22 -2 -33 -11 -33 -7 0 -19 -4 -27 -9 -13
-8 -13 -12 -1 -26 13 -15 12 -19 -7 -34 -20 -17 -20 -18 -3 -29 23 -14 16 -45
-13 -57 -27 -12 -25 -28 4 -35 12 -3 24 -11 27 -18 3 -10 -5 -12 -32 -7 -42 8
-48 -6 -11 -23 l25 -12 -41 -42 -41 -42 26 -9 c37 -12 32 -29 -16 -52 -49 -24
-58 -41 -26 -51 22 -7 22 -7 3 -14 -15 -6 -27 0 -52 28 -30 33 -32 37 -17 53
15 16 14 18 -13 22 -27 4 -27 5 -5 12 27 9 29 25 4 32 -19 5 -27 39 -11 49 6
4 4 13 -6 24 -11 12 -13 20 -6 25 17 10 13 22 -9 28 -15 4 -20 13 -18 34 1 15
-4 38 -10 50 -7 12 -12 32 -11 45 0 13 -6 40 -14 61 l-14 39 -7 -44 c-4 -23
-9 -53 -10 -66 -1 -13 -10 -32 -19 -43 -14 -16 -15 -19 -2 -19 22 0 18 -21 -4
-27 -31 -8 -33 -30 -3 -38 l27 -7 -30 -24 c-19 -15 -24 -24 -15 -24 9 0 4 -7
-12 -18 l-27 -18 30 -13 c36 -16 37 -29 2 -37 -42 -11 -60 -44 -23 -44 22 0
23 -1 14 -24 -3 -9 -12 -16 -20 -16 -21 0 -17 -17 7 -33 l21 -15 -22 -7 c-12
-4 -24 -4 -27 -1 -7 7 -33 -19 -33 -33 0 -6 -7 -11 -16 -11 -28 0 -5 -18 33
-25 l38 -7 -26 -13 c-21 -11 -32 -12 -63 -1 -32 11 -35 14 -21 26 14 11 13 14
-5 27 -24 17 -26 33 -5 33 24 0 18 19 -10 32 -30 14 -32 26 -4 36 18 7 19 10
5 21 -8 7 -13 18 -10 25 3 7 -5 17 -18 23 l-23 11 24 9 24 10 -22 15 c-13 9
-19 21 -16 31 4 8 1 18 -4 22 -6 3 -9 10 -6 15 3 4 -1 32 -8 61 l-14 52 -8
-34 c-4 -19 -9 -43 -11 -54 -12 -90 -18 -108 -36 -113 -15 -3 -16 -7 -7 -19 9
-11 8 -17 -7 -28 -11 -8 -14 -14 -6 -15 21 0 13 -38 -10 -46 l-21 -6 24 -14
24 -13 -25 -1 c-22 0 -23 -1 -8 -16 15 -15 15 -19 -8 -43 -28 -30 -30 -41 -9
-41 8 0 15 -3 15 -6 0 -10 -42 -44 -54 -44 -6 0 -4 -5 4 -11 11 -8 12 -12 2
-16 -8 -3 -5 -10 10 -23 l23 -18 -34 -14 c-32 -13 -33 -15 -17 -30 19 -20 20
-28 3 -28 -7 0 -24 -8 -37 -17 l-25 -18 33 -5 c42 -6 45 -20 7 -40 -16 -8 -32
-17 -35 -18 -3 -2 8 -15 25 -28 l30 -24 -33 -6 -33 -7 36 -21 36 -22 -35 -19
c-20 -11 -36 -23 -36 -26 0 -12 124 -21 150 -11 39 14 50 5 50 -42 0 -77 6
-75 -274 -83 -163 -4 -241 -9 -226 -15 35 -13 1384 -21 1913 -11 246 4 447 7
447 6 0 -1 -20 -59 -45 -130 -40 -113 -75 -181 -75 -145 0 8 -13 11 -35 9 -19
-1 -35 -6 -35 -10 0 -4 -15 -7 -34 -5 -19 1 -32 6 -30 10 3 4 17 5 32 2 21 -4
24 -3 12 5 -19 14 -87 14 -95 1 -4 -7 -11 -7 -18 -2 -7 5 -30 9 -52 8 -22 -1
-58 3 -80 9 -22 6 -81 10 -132 10 -54 0 -89 4 -85 9 3 5 -2 7 -11 3 -9 -3 -17
-2 -19 2 -2 5 -18 6 -36 4 -27 -4 -33 -9 -29 -24 3 -11 1 -22 -4 -25 -5 -3 -9
2 -9 10 0 9 -5 16 -11 16 -5 0 -7 5 -4 10 6 10 -7 14 -32 11 -7 -1 -13 3 -13
9 0 6 -5 8 -12 3 -7 -4 -21 -6 -31 -4 -10 1 -27 -5 -36 -13 -16 -14 -25 -15
-70 -4 -39 9 -60 9 -82 1 -16 -6 -29 -7 -29 -2 0 5 -11 9 -25 9 -15 0 -24 5
-22 13 1 6 -6 12 -15 12 -9 0 -20 4 -24 8 -11 11 -26 9 -19 -3 3 -5 1 -10 -4
-10 -6 0 -11 9 -11 20 0 15 -7 20 -24 20 -14 0 -28 -5 -32 -11 -3 -6 -19 -9
-35 -7 -23 4 -26 2 -18 -9 7 -7 8 -13 3 -13 -4 0 -18 12 -30 27 l-22 28 -25
-27 c-14 -15 -27 -34 -29 -43 -5 -25 -23 -18 -26 11 -2 17 0 24 7 19 6 -3 11
-2 11 3 0 29 -82 30 -113 1 -20 -19 -21 -19 -39 1 -10 10 -18 22 -18 25 0 3
-12 17 -27 30 -31 26 -43 19 -43 -27 0 -28 -22 -39 -35 -18 -3 6 -1 10 4 10 6
0 9 10 7 23 -3 12 -5 25 -5 30 -2 15 -20 6 -26 -14 -4 -12 -12 -18 -21 -15 -8
3 -14 -1 -14 -9 0 -8 -7 -15 -15 -15 -8 0 -15 -6 -15 -14 0 -8 -4 -17 -8 -20
-14 -8 -72 37 -72 57 0 9 -3 17 -7 17 -5 0 -18 3 -30 6 -20 5 -23 2 -23 -20 0
-18 4 -25 12 -20 8 5 9 2 5 -10 -6 -14 -3 -17 10 -12 13 4 11 0 -6 -14 -33
-29 -41 -25 -41 19 0 22 -3 42 -7 44 -10 5 -84 -28 -84 -37 1 -3 -1 -6 -4 -6
-3 0 -9 0 -15 0 -5 0 -10 7 -10 15 0 20 -29 19 -37 -1 -5 -15 -7 -15 -15 0
-13 24 -26 20 -43 -14 -21 -40 -39 -39 -30 2 l7 32 -28 -19 c-16 -10 -35 -27
-43 -38 -9 -13 -16 -16 -24 -8 -6 6 -28 11 -48 11 -21 0 -40 4 -44 9 -3 5 -25
9 -50 8 -37 -2 -45 -6 -50 -24 -3 -13 -10 -23 -16 -23 -7 0 -9 9 -6 23 8 31
-6 51 -32 42 -15 -5 -21 -2 -21 9 0 20 -14 20 -30 1 -7 -8 -20 -15 -30 -15
-10 0 -20 -6 -23 -13 -3 -8 -21 -23 -41 -35 -35 -21 -36 -21 -46 -2 -15 29
-12 45 15 74 26 29 53 82 62 127 4 24 1 28 -32 39 -20 7 -70 44 -113 84 -42
39 -92 78 -111 86 l-34 14 6 120 c3 76 1 137 -6 163 -10 40 -10 43 17 64 41
32 86 98 86 127 0 15 -14 38 -39 61 -64 59 -139 116 -162 121 -36 9 -45 33
-26 73 39 82 3 147 -82 147 -25 0 -63 3 -83 6 -35 6 -38 5 -38 -17 0 -12 10
-33 22 -46 18 -19 19 -27 11 -46 -14 -29 12 -117 33 -117 7 0 20 -12 28 -28
13 -25 12 -33 -11 -87 -14 -33 -27 -61 -28 -63 -7 -8 -52 22 -73 49 -25 30
-59 38 -80 17 -19 -19 -14 -48 11 -59 12 -5 38 -35 57 -66 19 -31 52 -67 73
-81 33 -22 37 -29 37 -69 0 -29 -7 -55 -21 -74 -48 -67 -78 -157 -99 -290 -11
-73 -27 -143 -35 -155 -16 -25 -63 -39 -95 -29 -16 5 -23 2 -26 -12 -5 -18
-74 -53 -107 -53 -9 0 -17 6 -18 13 0 8 -2 8 -6 -2 -4 -11 -7 -11 -13 0 -7 10
-11 10 -24 -1 -14 -11 -16 -10 -10 4 11 30 -28 18 -68 -21 -33 -32 -38 -34
-38 -16 0 24 -46 73 -69 73 -9 0 -39 -15 -66 -34 -46 -30 -52 -32 -72 -19 -12
8 -47 18 -77 22 -51 7 -55 6 -65 -16 -14 -30 -27 -29 -35 2 -9 35 -46 35 -46
0 0 -28 -3 -30 -29 -13 -15 9 -29 9 -61 -1 -32 -9 -45 -10 -56 -1 -7 7 -21 9
-31 6 -9 -4 -20 -1 -24 5 -4 6 -22 12 -40 13 -19 0 -37 5 -41 10 -3 5 -12 -9
-19 -32 -12 -43 -29 -56 -29 -24 0 33 -85 45 -350 50 -223 3 -477 -4 -467 -14
2 -2 149 -4 325 -4 177 0 322 -2 322 -5 0 -2 -17 -12 -37 -21 -21 -10 -42 -24
-46 -31 -5 -8 -21 -11 -42 -8 -23 3 -35 -1 -39 -11 -4 -12 -10 -13 -26 -4 -11
6 -24 8 -29 5 -5 -3 -11 0 -13 7 -4 10 -10 10 -33 0 -19 -9 -31 -10 -39 -2 -7
7 -1 10 18 10 22 0 27 4 22 16 -3 9 -6 21 -6 27 0 6 -11 0 -24 -12 -21 -20
-28 -21 -62 -12 -41 11 -54 8 -54 -15 0 -11 6 -13 21 -9 20 7 21 7 2 -13 -18
-19 -18 -19 -44 4 -31 29 -44 30 -93 5 -21 -11 -44 -17 -52 -14 -8 3 -20 0
-28 -6 -10 -9 -15 -8 -20 4 -7 19 -37 19 -83 0 -23 -10 -82 -17 -167 -20 -270
-9 -401 -16 -417 -21 -9 -2 -27 0 -40 5 -19 7 -32 31 -65 127 l-42 119 1142 2
c1136 1 1498 11 986 27 -168 5 -249 11 -257 19 -7 7 -16 34 -19 60 -6 44 -5
47 17 48 13 1 29 0 34 -1 6 -1 19 -4 29 -6 11 -2 23 -9 28 -16 6 -9 10 -10 16
-2 4 6 19 14 35 18 15 3 27 10 27 15 0 4 -12 14 -27 21 -48 24 -56 32 -41 41
7 5 23 9 34 9 23 0 43 30 21 30 -19 1 -65 39 -47 40 12 0 12 2 2 9 -10 6 -4
10 20 16 22 5 27 9 16 12 -10 2 -18 9 -18 14 0 5 -6 9 -14 9 -25 0 -29 21 -6
27 21 6 22 7 6 19 -12 8 -14 14 -6 19 8 5 4 11 -11 19 -37 18 -34 34 8 38 l38
3 -45 24 -45 24 40 12 c22 7 32 13 23 14 -9 1 -20 10 -23 21 -4 13 -15 20 -33
20 -24 0 -25 1 -10 16 15 15 14 18 -6 38 l-21 21 23 3 c29 4 28 20 -2 32 -34
12 -40 27 -15 35 19 6 19 8 4 25 -13 14 -13 19 -3 22 9 3 5 9 -10 17 -25 13
-29 31 -7 31 22 0 18 18 -5 25 -22 7 -26 20 -10 30 7 4 7 11 2 18 -5 7 -15 39
-22 72 l-14 59 -8 -39 c-23 -120 -34 -158 -46 -162 -7 -3 -10 -13 -7 -23 3
-10 1 -21 -5 -25 -8 -5 -8 -10 0 -20 8 -10 6 -18 -10 -33 l-22 -20 21 -7 c31
-9 26 -23 -6 -18 l-28 5 25 -21 c14 -12 19 -21 12 -21 -13 0 -51 -38 -52 -51
0 -4 10 -10 23 -14 19 -6 19 -8 5 -12 -10 -2 -18 -8 -18 -13 0 -4 -10 -10 -22
-14 -19 -5 -21 -8 -8 -16 12 -8 12 -10 -5 -10 -46 0 -52 27 -10 45 18 7 18 9
3 12 -22 5 -24 23 -3 23 28 0 15 20 -25 37 -43 19 -47 34 -12 43 21 5 21 6
-11 41 -32 35 -32 35 -12 52 19 16 19 16 -15 18 l-35 1 28 11 c32 13 35 27 8
34 -25 6 -34 40 -12 48 14 6 13 9 -6 25 -18 14 -20 19 -8 24 19 7 19 26 1 26
-19 0 -25 10 -30 51 -3 19 -9 46 -15 60 -5 15 -8 29 -6 31 2 2 -2 24 -10 48
-12 41 -14 42 -15 15 0 -16 -7 -41 -14 -54 -7 -13 -11 -32 -9 -41 2 -9 -3 -22
-11 -30 -15 -11 -15 -14 1 -26 17 -13 17 -14 -4 -20 -25 -7 -40 -34 -18 -34
25 0 27 -20 3 -40 -16 -14 -19 -19 -8 -20 9 0 4 -7 -13 -18 l-27 -19 26 -11
c28 -14 28 -35 -2 -41 -31 -6 -47 -41 -19 -41 8 0 15 -9 15 -20 0 -23 -7 -24
-45 -10 -14 5 -24 14 -21 19 3 5 -1 12 -10 15 -8 3 -12 11 -9 16 4 7 -2 9 -17
5 -13 -3 -31 0 -43 9 -17 13 -18 15 -3 16 23 0 46 40 23 40 -9 0 -19 10 -24
23 -7 19 -4 23 22 30 27 8 29 10 14 18 -10 6 -15 14 -12 20 4 5 -5 9 -18 9
-14 0 -30 7 -38 16 -14 18 -3 29 40 40 22 6 21 8 -15 25 l-39 17 28 13 28 13
-33 10 c-38 12 -44 37 -11 46 18 4 19 8 10 21 -7 8 -20 18 -29 22 -22 8 -23
26 -3 33 11 5 12 10 3 24 -7 10 -16 16 -20 14 -4 -3 -8 2 -8 10 0 8 5 18 10
21 7 4 6 14 -2 28 -6 12 -17 47 -24 77 -10 45 -12 49 -13 22 -1 -18 -8 -46
-16 -62 -8 -16 -11 -30 -5 -32 9 -3 -9 -70 -23 -85 -4 -3 -4 -22 -1 -40 6 -30
3 -34 -25 -46 -29 -12 -30 -14 -13 -31 16 -16 16 -18 -7 -37 -20 -16 -21 -20
-7 -25 25 -10 15 -47 -16 -63 -33 -16 -29 -26 12 -34 16 -4 30 -12 30 -18 0
-7 -12 -9 -35 -5 -42 8 -45 -3 -8 -26 26 -15 26 -16 5 -22 -12 -4 -22 -12 -22
-17 0 -5 -10 -19 -21 -30 l-22 -22 27 -14 c31 -16 34 -33 6 -33 -11 0 -20 -4
-20 -10 0 -5 -9 -10 -19 -10 -16 0 -38 -28 -29 -35 2 -1 11 -7 22 -12 18 -10
18 -10 -1 -15 -14 -4 -30 6 -55 33 l-36 38 22 15 c20 15 20 15 -12 15 -19 1
-31 5 -27 11 3 6 15 10 26 10 25 0 25 20 0 27 -25 6 -31 34 -12 49 12 10 11
13 -8 23 -17 10 -20 15 -11 26 9 11 6 19 -10 35 -12 12 -19 28 -16 36 3 9 2
24 -4 33 -5 10 -11 33 -14 52 -3 19 -9 50 -14 69 l-9 35 -7 -42 c-4 -24 -12
-45 -17 -49 -5 -3 -7 -15 -3 -28 3 -14 -1 -27 -11 -36 -13 -11 -13 -15 -3 -22
10 -7 8 -13 -9 -25 -28 -19 -29 -29 -3 -36 28 -7 25 -22 -7 -36 -20 -9 -23
-15 -14 -20 10 -7 8 -12 -8 -23 l-21 -15 26 -12 c29 -13 28 -34 -2 -40 -18 -3
-34 -18 -34 -32 0 -4 9 -9 20 -12 25 -6 17 -33 -12 -40 -19 -5 -19 -7 -5 -21
9 -9 22 -16 29 -16 8 0 6 -5 -5 -11 -10 -6 -27 -9 -38 -6 -10 3 -17 1 -13 -4
3 -5 0 -9 -5 -9 -6 0 -11 -7 -11 -15 0 -8 -7 -15 -15 -15 -32 0 -13 -19 26
-25 l42 -7 -32 -16 c-24 -11 -35 -12 -44 -3 -6 6 -19 11 -29 11 -23 0 -23 16
0 29 16 10 16 10 0 11 -10 0 -18 2 -18 4 0 2 -3 11 -6 20 -4 11 -1 16 10 16
25 0 19 19 -9 30 -29 11 -32 25 -7 39 16 10 16 12 -2 26 -14 11 -16 15 -5 15
9 0 5 8 -11 20 l-25 19 24 9 24 9 -22 16 c-13 8 -20 20 -16 26 3 6 3 17 -2 24
-4 6 -8 19 -9 27 -2 32 -17 80 -25 80 -9 0 -10 -3 -15 -56 -1 -18 -7 -41 -13
-52 -6 -12 -11 -32 -11 -46 0 -17 -5 -26 -16 -26 -13 0 -14 -3 -5 -14 9 -10 8
-16 -4 -26 -12 -10 -13 -16 -3 -28 11 -12 9 -17 -10 -30 l-24 -15 24 -13 c23
-13 23 -13 -7 -14 -28 -1 -29 -2 -11 -15 18 -14 18 -15 -9 -47 -28 -32 -28
-33 -7 -36 29 -4 28 -13 -7 -37 -22 -14 -27 -23 -19 -32 8 -10 6 -13 -8 -14
-16 0 -16 -2 3 -11 30 -14 29 -26 -3 -38 -25 -10 -26 -11 -10 -35 14 -21 14
-25 2 -25 -7 0 -24 -9 -37 -20 l-24 -19 33 -1 c45 0 40 -31 -7 -46 l-33 -11
33 -26 33 -25 -35 -10 -34 -9 40 -21 c22 -12 33 -21 25 -22 -20 -1 -65 -39
-56 -48 4 -3 50 -6 103 -6 l95 1 -4 -49 c-3 -27 -9 -53 -14 -58 -5 -5 -111
-13 -235 -16 l-225 -7 -22 84 c-71 270 -101 476 -109 755 -6 216 5 414 32 583
l14 86 78 72 c43 40 81 72 84 73 4 0 1 -27 -6 -60 -7 -34 -9 -60 -5 -58 4 2
40 44 79 95 39 51 79 96 89 101 17 10 151 42 172 42 6 0 -21 -42 -59 -92 -38
-51 -68 -94 -66 -96 1 -2 96 76 209 174 113 97 204 179 202 181 -2 2 -30 -8
-61 -22 -32 -14 -60 -23 -62 -21 -5 5 95 90 122 104 25 12 182 45 196 40 6 -2
-53 -75 -131 -162 -78 -86 -140 -159 -138 -162 7 -6 567 460 572 476 3 8 -1
37 -9 64 -24 78 -22 79 51 41 36 -19 70 -32 75 -29 5 3 34 55 64 115 31 60 57
109 60 109 2 0 2 -6 0 -12 -2 -7 -27 -94 -55 -193 -28 -99 -57 -189 -65 -201
-7 -11 -70 -60 -139 -110 -69 -49 -122 -90 -117 -92 14 -5 383 147 404 166 11
9 62 79 115 154 53 76 97 136 99 134 3 -2 -9 -48 -26 -102 -17 -54 -29 -99
-27 -102 2 -2 52 91 110 207 59 116 104 211 101 211 -3 0 -60 -43 -126 -96
-66 -53 -121 -95 -124 -93 -2 3 9 33 25 69 16 36 30 70 30 77 0 7 -17 13 -40
15 l-40 3 36 55 c20 30 57 84 82 119 l46 65 19 -45 c10 -24 21 -56 24 -70z
m-351 -1958 c22 -17 23 -20 7 -24 -29 -8 -123 10 -123 24 0 7 13 10 78 17 8 1
25 -7 38 -17z m3784 4 c7 -8 20 -15 29 -15 15 -1 14 -1 -1 -10 -17 -10 -73 -8
-85 3 -3 4 -17 7 -30 7 -12 0 -23 4 -23 9 0 9 21 13 81 19 9 1 22 -5 29 -13z
m-4239 -37 c41 -14 64 -34 49 -43 -14 -9 -70 4 -70 16 0 5 -7 9 -15 9 -16 0
-20 12 -8 23 8 9 4 9 44 -5z m3808 -6 c47 -23 55 -47 12 -39 -38 8 -83 36 -75
48 8 13 24 10 63 -9z m-1582 -14 c-3 -8 -6 -5 -6 6 -1 11 2 17 5 13 3 -3 4
-12 1 -19z m-1808 -44 l32 -7 -26 -13 c-23 -12 -29 -11 -48 6 -23 22 -15 25
42 14z m3820 -4 c9 -1 3 -7 -14 -14 -22 -9 -35 -10 -47 -2 -28 17 -21 29 13
22 17 -3 39 -6 48 -6z m-4223 -68 c-9 -9 -37 8 -31 18 5 8 11 7 21 -1 8 -6 12
-14 10 -17z m3789 8 c3 -5 -1 -10 -9 -10 -9 0 -16 5 -16 10 0 6 4 10 9 10 6 0
13 -4 16 -10z m-4096 -9 c12 -8 12 -12 2 -24 -9 -12 -18 -13 -41 -4 -34 13
-38 23 -12 30 28 8 36 7 51 -2z m3794 1 c15 -6 16 -10 4 -26 -13 -18 -15 -18
-48 0 l-34 18 25 7 c32 9 32 9 53 1z m1056 -63 c-24 -15 -45 -11 -24 5 11 8
24 12 28 9 5 -3 3 -9 -4 -14z m-3794 1 c-3 -5 -13 -10 -21 -10 -8 0 -12 5 -9
10 3 6 13 10 21 10 8 0 12 -4 9 -10z m-1085 -8 c0 -14 -11 -21 -26 -15 -21 8
-17 23 6 23 11 0 20 -4 20 -8z m3788 -3 c-2 -6 -8 -10 -13 -10 -5 0 -11 4 -13
10 -2 6 4 11 13 11 9 0 15 -5 13 -11z m-3763 -49 c-3 -5 -11 -10 -16 -10 -6 0
-7 5 -4 10 3 6 11 10 16 10 6 0 7 -4 4 -10z m3790 0 c-3 -5 -11 -10 -16 -10
-6 0 -7 5 -4 10 3 6 11 10 16 10 6 0 7 -4 4 -10z m-1387 -225 c39 -61 46 -67
134 -109 117 -57 168 -98 168 -134 0 -41 -22 -93 -54 -134 -25 -30 -32 -34
-43 -23 -7 8 -13 22 -13 31 0 14 -8 10 -37 -17 -36 -34 -36 -28 -1 24 11 15
16 27 11 27 -13 0 -28 -14 -31 -30 -4 -18 -32 -50 -43 -50 -4 0 -9 10 -11 22
-2 15 -16 29 -40 41 -21 9 -38 21 -38 26 0 5 -15 9 -32 9 -18 0 -52 3 -74 7
l-42 7 -7 -41 c-9 -51 -28 -55 -20 -3 5 35 4 35 -6 9 -16 -41 -29 -23 -29 44
0 44 7 74 29 121 16 35 35 91 42 126 10 55 16 66 48 88 19 13 39 24 42 24 4 0
25 -29 47 -65z m-2408 25 c0 -5 -4 -10 -10 -10 -5 0 -10 5 -10 10 0 6 5 10 10
10 6 0 10 -4 10 -10z m3800 6 c0 -3 -4 -8 -10 -11 -5 -3 -10 -1 -10 4 0 6 5
11 10 11 6 0 10 -2 10 -4z m-3688 -76 c18 0 20 -5 15 -41 -9 -70 -25 -79 -143
-79 -113 0 -120 3 -124 65 -3 47 -1 53 18 57 18 4 83 -21 94 -37 4 -5 17 0 31
13 13 12 26 19 30 16 3 -3 16 1 29 10 13 10 24 12 26 6 2 -5 13 -10 24 -10z
m356 14 c25 -7 30 -40 10 -77 -6 -12 -14 -29 -18 -37 -6 -12 -33 -16 -131 -18
-117 -3 -125 -1 -141 19 -10 12 -18 38 -18 59 0 45 20 57 66 40 31 -12 150 -5
175 11 17 10 26 11 57 3z m3433 -14 c15 0 19 -7 19 -31 0 -32 -15 -69 -34 -81
-6 -4 -54 -8 -107 -8 -110 0 -119 5 -126 74 -5 38 -3 44 16 49 13 3 39 -4 65
-18 38 -20 45 -21 58 -8 8 8 21 15 29 17 8 1 23 7 34 13 12 7 21 8 23 2 2 -5
12 -9 23 -9z m356 14 c26 -5 28 -9 25 -40 -2 -19 -8 -31 -14 -28 -6 4 -8 -1
-4 -14 14 -42 -15 -52 -148 -52 -139 0 -142 1 -152 72 -6 42 -5 46 19 52 14 3
38 1 54 -5 31 -12 160 -3 169 12 6 11 12 11 51 3z m-3612 -20 c12 -13 19 -14
30 -4 12 10 15 9 15 -9 0 -27 26 -28 33 -1 4 14 10 18 22 14 9 -4 20 -2 24 5
5 7 19 9 39 5 27 -6 32 -11 32 -36 0 -31 -16 -68 -34 -80 -6 -4 -59 -8 -117
-8 -128 0 -140 6 -147 78 l-5 52 46 0 c28 0 52 -6 62 -16z m372 -1 c34 -3 75
-1 90 4 15 5 36 7 47 5 16 -3 18 -10 12 -49 -9 -71 -14 -73 -141 -73 -127 0
-133 3 -142 71 -7 47 7 63 47 54 14 -4 53 -9 87 -12z m3418 3 c11 -8 25 -12
32 -9 7 3 13 -2 13 -11 0 -24 27 -19 33 5 4 15 11 20 23 15 9 -3 22 -2 28 3 6
5 23 7 39 4 24 -5 27 -10 27 -42 0 -20 -7 -47 -16 -59 -14 -21 -23 -22 -128
-22 -131 0 -145 8 -153 85 l-6 45 45 0 c24 0 53 -6 63 -14z m372 -3 c34 -3 76
0 93 5 17 6 37 9 45 6 17 -7 20 -60 5 -98 -9 -26 -10 -26 -129 -26 -135 0
-133 -1 -146 77 -5 35 -4 42 12 46 10 3 27 3 38 0 11 -3 48 -7 82 -10z m-3947
-277 c0 -3 -4 -8 -10 -11 -5 -3 -10 -1 -10 4 0 6 5 11 10 11 6 0 10 -2 10 -4z
m-210 -351 l0 -224 128 -3 127 -3 3 -52 3 -53 -200 0 -201 0 0 280 0 280 70 0
70 0 0 -225z m540 -55 l0 -280 -70 0 -70 0 0 280 0 280 70 0 70 0 0 -280z
m439 130 l64 -151 65 151 65 151 91 -3 91 -3 3 -277 2 -278 -70 0 -70 0 -2
197 -3 197 -62 -144 -61 -145 -48 0 -47 0 -61 143 -61 144 -3 -196 -2 -196
-70 0 -70 0 0 280 0 280 93 0 93 0 63 -150z m711 -130 l0 -280 -70 0 -70 0 0
280 0 280 70 0 70 0 0 -280z m455 87 l100 -188 3 191 2 191 68 -3 67 -3 3
-278 2 -278 -86 3 -87 3 -96 181 -96 182 -3 -184 -2 -184 -70 0 -70 0 0 280 0
281 83 -3 82 -3 100 -188z m745 190 c0 -2 45 -125 100 -273 55 -148 100 -273
100 -277 0 -4 -32 -7 -71 -5 l-71 3 -17 45 -17 45 -111 3 -111 3 -18 -51 -18
-50 -74 0 c-67 0 -73 2 -67 18 4 9 45 121 92 247 47 127 91 245 98 263 l14 32
85 0 c48 0 86 -1 86 -3z m470 -222 l0 -224 128 -3 127 -3 3 -52 3 -53 -200 0
-201 0 0 280 0 280 70 0 70 0 0 -225z m-3117 -458 c92 -60 88 -200 -5 -257
-18 -11 -28 -20 -22 -20 24 0 68 -59 115 -152 27 -54 49 -100 49 -103 0 -3
-34 -5 -75 -5 l-75 0 -41 83 c-55 110 -72 127 -126 127 l-43 0 0 -105 0 -106
-72 3 -73 3 -3 278 -2 279 173 -4 c146 -2 177 -6 200 -21z m419 -183 l3 -206
28 -24 c46 -39 123 -27 146 23 7 15 11 97 11 218 l0 195 75 0 75 0 0 -188 c0
-225 -10 -272 -69 -325 -65 -59 -200 -73 -299 -31 -50 21 -72 42 -95 94 -18
39 -21 70 -25 248 l-4 202 75 0 76 0 3 -206z m788 24 l95 -181 3 181 2 182 70
0 70 0 0 -280 0 -281 -81 3 -81 3 -99 185 -98 185 -3 -185 -3 -185 -67 -3 -68
-3 0 281 0 280 83 0 82 0 95 -182z m696 -5 l99 -188 3 188 2 187 65 0 65 0 0
-280 0 -280 -79 0 -78 0 -99 187 -99 187 -3 -187 -2 -187 -70 0 -70 0 0 280 0
280 83 0 83 0 100 -187z m822 135 l-3 -53 -122 -3 -123 -3 0 -49 0 -50 115 0
115 0 0 -55 0 -55 -115 0 -115 0 0 -65 0 -65 125 0 125 0 0 -55 0 -55 -197 2
-198 3 -3 278 -2 277 200 0 201 0 -3 -52z m539 31 c53 -26 73 -61 73 -129 0
-62 -21 -102 -66 -126 l-32 -17 31 -21 c29 -20 136 -203 137 -233 0 -9 -22
-13 -75 -13 l-76 0 -40 84 c-54 112 -68 126 -124 126 l-45 0 0 -105 0 -105
-70 0 -70 0 0 280 0 280 157 0 c139 0 162 -2 200 -21z m163 -599 c0 -20 -7
-20 -1910 -20 -1903 0 -1910 0 -1910 20 0 20 7 20 1910 20 1903 0 1910 0 1910
-20z m-242 -177 c-3 -17 -92 -18 -1673 -21 -1001 -1 -1673 2 -1678 7 -5 5 -6
14 -3 20 5 8 487 11 1682 11 1590 0 1675 -1 1672 -17z m-549 -162 c8 -5 11
-16 8 -25 -6 -15 -109 -16 -1130 -16 -921 0 -1127 2 -1136 13 -30 37 -16 37
1129 37 628 0 1121 -4 1129 -9z m-442 -187 c3 -9 0 -20 -8 -25 -8 -5 -312 -9
-680 -9 -541 0 -669 2 -678 13 -29 36 -3 37 686 37 608 0 674 -2 680 -16z"/>
<path d="M940 2501 l-105 -6 145 -7 c187 -10 1008 -10 1215 0 l160 7 -100 6
c-121 8 -1167 7 -1315 0z"/>
<path d="M4735 2501 l-110 -6 145 -7 c188 -10 1018 -10 1225 0 l160 7 -105 6
c-127 8 -1161 7 -1315 0z"/>
<path d="M5075 2430 c-33 -4 109 -7 315 -7 206 0 362 3 345 7 -36 9 -576 9
-660 0z"/>
<path d="M4191 2404 c0 -11 3 -14 6 -6 3 7 2 16 -1 19 -3 4 -6 -2 -5 -13z"/>
<path d="M3710 2400 c0 -5 5 -10 11 -10 5 0 7 5 4 10 -3 6 -8 10 -11 10 -2 0
-4 -4 -4 -10z"/>
<path d="M4536 2130 c-25 -68 -66 -185 -66 -192 0 -4 32 -8 70 -8 60 0 70 2
69 18 -1 32 -67 197 -73 182z"/>
<path d="M1760 1461 l0 -71 54 0 c66 0 86 16 86 69 0 49 -18 63 -86 69 l-54 4
0 -71z"/>
<path d="M5037 1523 c-4 -3 -7 -35 -7 -70 l0 -63 55 0 c42 0 60 5 75 20 48 48
4 120 -73 120 -24 0 -47 -3 -50 -7z"/>
</g>
</svg>
